# xmcd
#
# Track frame offsets:
#	150
#	7345
#	29132
#	52087
#	71895
#	92367
#	108107
#	121777
#	139782
#	154802
#	175112
#	190102
#	204675
#	221007
#	244872
#	286177
#
# Disc length: 4020 seconds
#
# Revision: 17
# Processed by: cddbd v1.5.2PL0 Copyright (c) Steve Scherf et al.
# Submitted via: EZCDAudioConverter 1.3.4.1
#
DISCID=ec0fb210
DTITLE=Tweet - It's Me Again
DYEAR=2005
DGENRE=Soul
TTITLE0=Intro (It's Me Again)
TTITLE1=Turn Da Lights Off (feat. Missy Elliott)
TTITLE2=Iceberg
TTITLE3=Could It Be (feat. Rell)
TTITLE4=You
TTITLE5=Cab Ride
TTITLE6=Things I Don't Mean (feat. Missy Elliott)
TTITLE7=My Man
TTITLE8=Sports, Sex and Food
TTITLE9=Small Change
TTITLE10=Two Of Us (feat. Tashawna)
TTITLE11=Where Do We Go From Here
TTITLE12=Steer
TTITLE13=I'm Done
TTITLE14=We Don't Need No Water (feat. Missy Elliott) - Hidden Track "When I N
TTITLE14=eed a Man"
TTITLE15=Turn Da Lights Off (feat. Missy Elliott) [Remix]
EXTD=
EXTT0=
EXTT1=
EXTT2=
EXTT3=
EXTT4=
EXTT5=
EXTT6=
EXTT7=
EXTT8=
EXTT9=
EXTT10=
EXTT11=
EXTT12=
EXTT13=
EXTT14=
EXTT15=
PLAYORDER=
